<?xml version="1.0" encoding="UTF-8" standalone="no"?>
<!DOCTYPE svg PUBLIC "-//W3C//DTD SVG 1.1//EN" "http://www.w3.org/Graphics/SVG/1.1/DTD/svg11.dtd">
<svg width="100%" height="100%" viewBox="0 0 16 16" version="1.1" xmlns="http://www.w3.org/2000/svg" xmlns:xlink="http://www.w3.org/1999/xlink" xml:space="preserve" xmlns:serif="http://www.serif.com/" style="fill-rule:evenodd;clip-rule:evenodd;stroke-linejoin:round;stroke-miterlimit:2;">
    <path id="BoxFiller" d="M1.553,4.104C1.215,4.273 1,4.62 1,4.998L1,10.998C1,11.376 1.214,11.724 1.553,11.893L7.553,14.893C7.834,15.034 8.166,15.034 8.447,14.893L14.447,11.893C14.786,11.724 15,11.376 15,10.998L15,4.998C15,4.62 14.785,4.273 14.447,4.104L8.447,1.104C8.166,0.963 7.834,0.963 7.553,1.104L1.553,4.104ZM8,3.119L11.764,5L10.383,5.692L6.619,3.809L8,3.119ZM3,6.619L7,8.619L7,12.383L3,10.383L3,6.619ZM13,6.619L13,10.383L9,12.383L9,8.619L13,6.619Z" style="fill:rgb(224,224,224);fill-rule:nonzero;"/>
</svg>
