<?xml version="1.0" encoding="UTF-8" standalone="no"?>
<!DOCTYPE svg PUBLIC "-//W3C//DTD SVG 1.1//EN" "http://www.w3.org/Graphics/SVG/1.1/DTD/svg11.dtd">
<svg width="100%" height="100%" viewBox="0 0 16 16" version="1.1" xmlns="http://www.w3.org/2000/svg" xmlns:xlink="http://www.w3.org/1999/xlink" xml:space="preserve" xmlns:serif="http://www.serif.com/" style="fill-rule:evenodd;clip-rule:evenodd;stroke-linejoin:round;stroke-miterlimit:2;">
    <g>
        <path id="BoxFiller" d="M4.867,13.55L1.553,11.893C1.214,11.724 1,11.376 1,10.998L1,4.998C1,4.62 1.215,4.273 1.553,4.104L7.553,1.104C7.834,0.963 8.166,0.963 8.447,1.104L14.447,4.104C14.785,4.273 15,4.62 15,4.998L15,8.498C14.259,8.498 13.568,8.734 13,9.133L13,6.619L11.5,7.369L11.5,6.498L8.5,6.498L8.5,8.498L8,8.498C7.653,8.498 7.317,8.55 7,8.646L7,8.619L3,6.619L3,10.383L4.597,11.182C4.534,11.444 4.5,11.718 4.5,11.998C4.5,12.554 4.632,13.081 4.867,13.55ZM8.536,12.498L8,12.498C7.726,12.498 7.5,12.273 7.5,11.998C7.5,11.724 7.726,11.498 8,11.498L8.5,11.498L8.5,11.998C8.5,12.168 8.512,12.335 8.536,12.498ZM8,3.119L6.619,3.809L10.383,5.692L11.764,5L8,3.119Z" style="fill:rgb(224,224,224);"/>
        <g transform="matrix(1,0,0,1,2,5.49839)">
            <path d="M6,3.5C4.354,3.5 3,4.854 3,6.5C3,8.146 4.354,9.5 6,9.5L7,9.5L7,7.5L6,7.5C5.451,7.5 5,7.049 5,6.5C5,5.951 5.451,5.5 6,5.5L7,5.5L7,3.5L6,3.5Z" style="fill:rgb(255,69,69);fill-rule:nonzero;"/>
            <path d="M7,1.5L7,6.5C7,8.146 8.354,9.5 10,9.5L10,7.5C9.451,7.5 9,7.049 9,6.5L9,1.5L7,1.5Z" style="fill:rgb(128,255,69);fill-rule:nonzero;"/>
            <path d="M13,3.5C11.354,3.5 10,4.854 10,6.5L10,9.5L12,9.5L12,6.5C12,5.951 12.451,5.5 13,5.5L13,3.5Z" style="fill:rgb(69,215,255);fill-rule:nonzero;"/>
        </g>
    </g>
</svg>
