<?xml version="1.0" encoding="UTF-8" standalone="no"?>
<!DOCTYPE svg PUBLIC "-//W3C//DTD SVG 1.1//EN" "http://www.w3.org/Graphics/SVG/1.1/DTD/svg11.dtd">
<svg width="100%" height="100%" viewBox="0 0 16 16" version="1.1" xmlns="http://www.w3.org/2000/svg" xmlns:xlink="http://www.w3.org/1999/xlink" xml:space="preserve" xmlns:serif="http://www.serif.com/" style="fill-rule:evenodd;clip-rule:evenodd;stroke-linejoin:round;stroke-miterlimit:2;">
    <g>
        <path id="BoxFiller" d="M4.5,13.367L1.553,11.893C1.214,11.724 1,11.376 1,10.998L1,4.998C1,4.62 1.215,4.273 1.553,4.104L7.553,1.104C7.834,0.963 8.166,0.963 8.447,1.104L14.447,4.104C14.785,4.273 15,4.62 15,4.998L15,8.498L14.5,8.498L14.5,6.498L8,6.498C6.922,6.498 5.952,6.996 5.307,7.773L3,6.619L3,10.383L4.5,11.133L4.5,13.367ZM14.866,11.498C14.779,11.648 14.654,11.776 14.5,11.864L14.5,11.498L14.866,11.498ZM9.454,14.39L8.447,14.893C8.166,15.034 7.834,15.034 7.553,14.893L7.5,14.867L7.5,13.498L8.5,13.498L8.5,11.998C8.5,12.919 8.863,13.762 9.454,14.39ZM8.5,10.498L7.5,10.498L7.5,9.998C7.5,9.724 7.726,9.498 8,9.498L8.5,9.498L8.5,10.498ZM8,3.119L6.619,3.809L10.383,5.692L11.764,5L8,3.119Z" style="fill:rgb(224,224,224);"/>
        <g transform="matrix(1,0,0,1,2,2.99839)">
            <g transform="matrix(1,0,0,1,0,2)">
                <path d="M6,2C4.354,2 3,3.354 3,5L3,10L5,10L5,8L6,8L6,6L5,6L5,5C5,4.451 5.451,4 6,4L6,2ZM7,2L7,7C7,8.646 8.354,10 10,10L10,8C9.451,8 9,7.549 9,7L9,2L7,2ZM10,2L10,7C10,8.646 11.354,10 13,10L13,8C12.451,8 12,7.549 12,7L12,6L13,6L13,4L12,4L12,2L10,2Z" style="fill:rgb(53,212,244);fill-rule:nonzero;"/>
            </g>
            <g transform="matrix(1,0,0,1,0,2)">
                <path d="M7,2L7,7C7,8.646 8.354,10 10,10L10,8C9.451,8 9,7.549 9,7L9,2L7,2Z" style="fill:white;fill-opacity:0.4;fill-rule:nonzero;"/>
            </g>
        </g>
    </g>
</svg>
