<?xml version="1.0" encoding="UTF-8" standalone="no"?>
<!DOCTYPE svg PUBLIC "-//W3C//DTD SVG 1.1//EN" "http://www.w3.org/Graphics/SVG/1.1/DTD/svg11.dtd">
<svg width="100%" height="100%" viewBox="0 0 16 16" version="1.1" xmlns="http://www.w3.org/2000/svg" xmlns:xlink="http://www.w3.org/1999/xlink" xml:space="preserve" xmlns:serif="http://www.serif.com/" style="fill-rule:evenodd;clip-rule:evenodd;stroke-linejoin:round;stroke-miterlimit:2;">
    <g>
        <g transform="matrix(1.22465e-16,-2,-1,-2.04108e-17,6,28)">
            <path d="M10,2L12,6L8,6L10,2Z" style="fill:rgb(196,142,241);"/>
        </g>
        <g transform="matrix(1.375,0,0,3,-3.25,-4)">
            <path d="M7.607,5L6,5L6,3L7.617,3C7.563,3.015 7.512,3.031 7.463,3.048C7.14,3.161 6.908,3.311 6.773,3.498C6.662,3.651 6.605,3.817 6.605,3.998C6.605,4.178 6.661,4.344 6.769,4.497C6.902,4.685 7.129,4.834 7.444,4.948C7.495,4.966 7.55,4.984 7.607,5ZM12.389,3L14,3L14,5L12.381,5C12.436,4.985 12.488,4.969 12.537,4.951C12.856,4.839 13.087,4.69 13.224,4.504C13.337,4.35 13.395,4.183 13.395,4.002C13.395,3.821 13.338,3.655 13.228,3.501C13.093,3.314 12.865,3.165 12.552,3.052C12.501,3.034 12.446,3.016 12.389,3Z" style="fill:rgb(196,142,241);"/>
        </g>
        <g transform="matrix(2.24265,0,0,2.24265,-8.73722,-10.7049)">
            <path d="M9.356,7.275C9.572,7.275 9.742,7.325 9.867,7.423C9.991,7.521 10.08,7.651 10.133,7.813C10.187,7.975 10.214,8.152 10.214,8.343C10.214,8.534 10.187,8.71 10.132,8.872C10.078,9.033 9.988,9.162 9.861,9.26C9.735,9.357 9.562,9.406 9.343,9.406C9.157,9.406 9.002,9.361 8.878,9.27C8.753,9.18 8.646,9.055 8.557,8.895C8.504,8.99 8.444,9.076 8.375,9.153C8.307,9.23 8.226,9.292 8.131,9.337C8.036,9.383 7.924,9.406 7.794,9.406C7.58,9.406 7.411,9.357 7.287,9.258C7.162,9.16 7.074,9.03 7.021,8.868C6.968,8.706 6.942,8.529 6.942,8.338C6.942,8.147 6.969,7.971 7.022,7.809C7.076,7.648 7.166,7.519 7.293,7.421C7.42,7.324 7.593,7.275 7.813,7.275C7.995,7.275 8.148,7.321 8.273,7.412C8.397,7.503 8.506,7.63 8.599,7.791C8.65,7.694 8.709,7.608 8.778,7.531C8.846,7.453 8.927,7.392 9.021,7.345C9.115,7.299 9.227,7.275 9.356,7.275ZM7.902,7.817C7.804,7.817 7.729,7.861 7.677,7.949C7.625,8.036 7.6,8.166 7.6,8.338C7.6,8.503 7.624,8.631 7.672,8.722C7.72,8.813 7.793,8.859 7.892,8.859C7.969,8.859 8.032,8.832 8.082,8.778C8.132,8.725 8.175,8.653 8.21,8.561C8.245,8.47 8.277,8.369 8.307,8.259C8.275,8.184 8.241,8.112 8.204,8.045C8.168,7.977 8.125,7.922 8.077,7.88C8.029,7.838 7.97,7.817 7.902,7.817ZM9.259,7.817C9.185,7.817 9.124,7.844 9.074,7.899C9.024,7.953 8.981,8.025 8.946,8.116C8.911,8.206 8.877,8.306 8.844,8.417C8.877,8.494 8.912,8.566 8.949,8.634C8.986,8.701 9.029,8.756 9.079,8.797C9.129,8.838 9.187,8.859 9.254,8.859C9.455,8.859 9.556,8.685 9.556,8.338C9.556,8.173 9.531,8.045 9.481,7.954C9.431,7.863 9.357,7.817 9.259,7.817Z" style="fill:rgb(255,202,95);fill-rule:nonzero;"/>
        </g>
    </g>
</svg>
