<?xml version="1.0" encoding="UTF-8" standalone="no"?>
<!DOCTYPE svg PUBLIC "-//W3C//DTD SVG 1.1//EN" "http://www.w3.org/Graphics/SVG/1.1/DTD/svg11.dtd">
<svg width="100%" height="100%" viewBox="0 0 16 16" version="1.1" xmlns="http://www.w3.org/2000/svg" xmlns:xlink="http://www.w3.org/1999/xlink" xml:space="preserve" xmlns:serif="http://www.serif.com/" style="fill-rule:evenodd;clip-rule:evenodd;stroke-linejoin:round;stroke-miterlimit:2;">
    <g>
        <g transform="matrix(1.22465e-16,-2,-1,-2.04108e-17,6,28)">
            <path d="M10,2L12,6L8,6L10,2Z" style="fill:rgb(196,142,241);"/>
        </g>
        <g transform="matrix(1.3125,0,0,3,-2.375,-4)">
            <path d="M8.476,5L6,5L6,3L8.322,3L6.291,4.333L8.476,4.333L8.476,5ZM11.524,3L14,3L14,5L11.678,5L13.709,3.667L11.524,3.667L11.524,3Z" style="fill:rgb(196,142,241);"/>
        </g>
        <g transform="matrix(1.33333,0,0,0.857143,-2.91667,0.285714)">
            <path d="M9.5,9L8,9L11,2L11,9L12.5,9L9.5,16L9.5,9Z" style="fill:rgb(255,202,95);"/>
        </g>
    </g>
</svg>
