<?xml version="1.0" encoding="UTF-8" standalone="no"?>
<!DOCTYPE svg PUBLIC "-//W3C//DTD SVG 1.1//EN" "http://www.w3.org/Graphics/SVG/1.1/DTD/svg11.dtd">
<svg width="100%" height="100%" viewBox="0 0 16 16" version="1.1" xmlns="http://www.w3.org/2000/svg" xmlns:xlink="http://www.w3.org/1999/xlink" xml:space="preserve" xmlns:serif="http://www.serif.com/" style="fill-rule:evenodd;clip-rule:evenodd;">
    <g>
        <path d="M2,1L2,14L15,14" style="fill:none;fill-rule:nonzero;stroke:rgb(224,224,224);stroke-opacity:0.32;stroke-width:2px;"/>
        <g transform="matrix(0.666667,0,0,1,1.29289,-2)">
            <path d="M6,5L12,5" style="fill:none;stroke:rgb(195,142,241);stroke-width:1.18px;stroke-linecap:round;stroke-linejoin:round;stroke-miterlimit:1.5;"/>
        </g>
        <g transform="matrix(0.666667,0,0,1,7,-2)">
            <path d="M6,5L12,5" style="fill:none;stroke:rgb(195,142,241);stroke-width:1.18px;stroke-linecap:round;stroke-linejoin:round;stroke-miterlimit:1.5;"/>
        </g>
        <g transform="matrix(0.569036,-0.569036,0.707107,0.707107,4.34315,10.2929)">
            <path d="M6,5L12,5" style="fill:none;stroke:rgb(195,142,241);stroke-width:1.1px;stroke-linecap:round;stroke-linejoin:round;stroke-miterlimit:1.5;"/>
        </g>
        <g transform="matrix(2.04108e-17,0.666667,-1,1.22465e-16,12.2929,-3)">
            <path d="M6,5L12,5" style="fill:none;stroke:rgb(195,142,241);stroke-width:1.18px;stroke-linecap:round;stroke-linejoin:round;stroke-miterlimit:1.5;"/>
        </g>
        <g transform="matrix(0.569036,0.569036,-0.707107,0.707107,5.70711,0.0502525)">
            <path d="M6,5L12,5" style="fill:none;stroke:rgb(195,142,241);stroke-width:1.1px;stroke-linecap:round;stroke-linejoin:round;stroke-miterlimit:1.5;"/>
        </g>
        <g transform="matrix(-0.569036,0.569036,-0.707107,-0.707107,15.9497,7.12132)">
            <path d="M6,5L12,5" style="fill:none;stroke:rgb(195,142,241);stroke-width:1.1px;stroke-linecap:round;stroke-linejoin:round;stroke-miterlimit:1.5;"/>
        </g>
    </g>
</svg>
