<?xml version="1.0" encoding="UTF-8" standalone="no"?>
<!DOCTYPE svg PUBLIC "-//W3C//DTD SVG 1.1//EN" "http://www.w3.org/Graphics/SVG/1.1/DTD/svg11.dtd">
<svg width="100%" height="100%" viewBox="0 0 16 16" version="1.1" xmlns="http://www.w3.org/2000/svg" xmlns:xlink="http://www.w3.org/1999/xlink" xml:space="preserve" xmlns:serif="http://www.serif.com/" style="fill-rule:evenodd;clip-rule:evenodd;stroke-linejoin:round;stroke-miterlimit:2;">
    <g>
        <path id="BoxFiller" d="M4.867,13.55L1.553,11.893C1.214,11.724 1,11.376 1,10.998L1,4.998C1,4.62 1.215,4.273 1.553,4.104L7.553,1.104C7.834,0.963 8.166,0.963 8.447,1.104L14.447,4.104C14.785,4.273 15,4.62 15,4.998L15,6.498L12.5,6.498L12.5,6.869L11.5,7.369L11.5,6.5L8.5,6.5L8.5,8.535C8.336,8.511 8.17,8.498 8,8.498C7.653,8.498 7.317,8.55 7,8.646L7,8.619L3,6.619L3,10.383L4.597,11.182C4.534,11.444 4.5,11.718 4.5,11.998C4.5,12.554 4.632,13.081 4.867,13.55ZM15,9.498L15,10.5L14.159,10.5C13.979,10.125 13.734,9.786 13.439,9.498L15,9.498ZM8.5,11.998C8.5,12.273 8.274,12.498 8,12.498C7.726,12.498 7.5,12.273 7.5,11.998C7.5,11.724 7.726,11.498 8,11.498C8.274,11.498 8.5,11.724 8.5,11.998ZM8,3.119L6.619,3.809L10.383,5.692L11.764,5L8,3.119Z" style="fill:rgb(224,224,224);"/>
        <g transform="matrix(1,0,0,1,5,4.99839)">
            <g transform="matrix(1,0,0,1,-1.08572e-07,0.00161335)">
                <g transform="matrix(1,0,0,1,-3,0)">
                    <path d="M7,2L9,2L9,4C10.646,4 12,5.354 12,7C12,8.646 10.646,10 9,10L7,10L7,2ZM9,6L9,8C9.549,8 10,7.549 10,7C10,6.451 9.549,6 9,6Z" style="fill:rgb(85,243,227);"/>
                </g>
                <g transform="matrix(1,0,0,1,-3,0)">
                    <path d="M7,2L9,2L9,4C10.646,4 12,5.354 12,7C12,8.646 10.646,10 9,10L7,10L7,2ZM9,6L9,8C9.549,8 10,7.549 10,7C10,6.451 9.549,6 9,6Z" style="fill:white;fill-opacity:0.4;"/>
                </g>
            </g>
            <path d="M6,7C6,8.646 4.646,10 3,10C1.354,10 0,8.646 0,7C0,5.354 1.354,4 3,4C4.646,4 6,5.354 6,7ZM3,6C2.451,6 2,6.451 2,7C2,7.549 2.451,8 3,8C3.549,8 4,7.549 4,7C4,6.451 3.549,6 3,6Z" style="fill:rgb(85,243,227);"/>
            <g transform="matrix(1,0,0,1,-5,0)">
                <path d="M13,6.002L15,6.002L15,7.002C15,8.647 13.646,10.002 12,10.002L11,10.002L11,8.002L12,8.002C12.549,8.002 13,7.55 13,7.002L13,6.002ZM13,2L15,2L15,4L13,4L13,2Z" style="fill:rgb(85,243,227);"/>
            </g>
        </g>
    </g>
</svg>
