<?xml version="1.0" encoding="UTF-8" standalone="no"?>
<!DOCTYPE svg PUBLIC "-//W3C//DTD SVG 1.1//EN" "http://www.w3.org/Graphics/SVG/1.1/DTD/svg11.dtd">
<svg width="100%" height="100%" viewBox="0 0 16 16" version="1.1" xmlns="http://www.w3.org/2000/svg" xmlns:xlink="http://www.w3.org/1999/xlink" xml:space="preserve" xmlns:serif="http://www.serif.com/" style="fill-rule:evenodd;clip-rule:evenodd;stroke-linejoin:round;stroke-miterlimit:2;">
    <g transform="matrix(-1.32131,-1.61814e-16,1.61814e-16,-1.32131,18.5705,21.1298)">
        <path d="M8.693,5L12.598,5L14.055,7.524L12.878,9.288L13.311,9.533L11.178,10.045L11.169,10.04L10.701,8.055L11.134,8.3L12,7L8.669,7L8.693,5ZM8,13L9.553,10.671L11.275,11.693L9.083,14.982L6.917,14.982L5.558,12.943L5.129,13.197L5.582,11.185L5.591,11.18L7.709,11.667L7.281,11.921L8,13ZM5.807,5L5.801,4.5L7.319,5.995L7.319,6.005L5.837,7.5L5.831,7L4,7L5.701,9.551L3.952,10.534L1.945,7.524L3.402,5L5.807,5Z" style="fill:rgb(128,255,69);"/>
    </g>
</svg>
