<?xml version="1.0" encoding="UTF-8" standalone="no"?>
<!DOCTYPE svg PUBLIC "-//W3C//DTD SVG 1.1//EN" "http://www.w3.org/Graphics/SVG/1.1/DTD/svg11.dtd">
<svg width="100%" height="100%" viewBox="0 0 16 16" version="1.1" xmlns="http://www.w3.org/2000/svg" xmlns:xlink="http://www.w3.org/1999/xlink" xml:space="preserve" xmlns:serif="http://www.serif.com/" style="fill-rule:evenodd;clip-rule:evenodd;stroke-linejoin:round;stroke-miterlimit:2;">
    <g>
        <g transform="matrix(1.22465e-16,-2,-1,-2.04108e-17,6,28)">
            <path d="M10,2L12,6L8,6L10,2Z" style="fill:rgb(196,142,241);"/>
        </g>
        <g transform="matrix(1.375,0,0,3,-3.25,-4)">
            <path d="M6.727,5L6,5L6,3L6.727,3L6.727,5ZM12.001,3L14,3L14,3.733L12.001,3ZM14,4.267L14,5L12.001,5L14,4.267Z" style="fill:rgb(196,142,241);"/>
        </g>
        <g transform="matrix(0.6,0,0,0.6,6.4,3.2)">
            <path d="M1,3L1,13L7,13L7,11L3,11L3,5L7,5L7,3L1,3ZM10,4L10,7L5,7L5,9L10,9L10,12L15,8L10,4Z" style="fill:rgb(255,95,95);fill-rule:nonzero;"/>
        </g>
    </g>
</svg>
