<?xml version="1.0" encoding="UTF-8" standalone="no"?>
<!DOCTYPE svg PUBLIC "-//W3C//DTD SVG 1.1//EN" "http://www.w3.org/Graphics/SVG/1.1/DTD/svg11.dtd">
<svg width="100%" height="100%" viewBox="0 0 16 16" version="1.1" xmlns="http://www.w3.org/2000/svg" xmlns:xlink="http://www.w3.org/1999/xlink" xml:space="preserve" xmlns:serif="http://www.serif.com/" style="fill-rule:evenodd;clip-rule:evenodd;stroke-linejoin:round;stroke-miterlimit:2;">
    <g>
        <path id="BoxFiller" d="M5.5,13.867L1.553,11.893C1.214,11.724 1,11.376 1,10.998L1,4.998C1,4.62 1.215,4.273 1.553,4.104L7.553,1.104C7.834,0.963 8.166,0.963 8.447,1.104L14.447,4.104C14.785,4.273 15,4.62 15,4.998L15,5.5L10.766,5.5L11.764,5L8,3.119L6.619,3.809L10.383,5.692L10.5,5.633L10.5,7.5L5.5,7.5L5.5,7.869L3,6.619L3,10.383L5.5,11.633L5.5,13.867ZM15,9.798L15,10.204C14.959,10.135 14.915,10.067 14.868,10C14.915,9.934 14.959,9.867 15,9.798ZM10.5,13.867L8.447,14.893C8.166,15.034 7.834,15.034 7.553,14.893L6.767,14.5L8,14.5C8.975,14.5 9.863,14.092 10.5,13.44L10.5,13.867ZM11.497,11.134L11.5,11.133L11.5,11.5L12,11.5C12.274,11.5 12.5,11.726 12.5,12C12.5,12.274 12.274,12.5 12,12.5L11.158,12.5C11.359,12.083 11.479,11.62 11.497,11.134Z" style="fill:rgb(224,224,224);"/>
        <g transform="matrix(1,0,0,1,3,5)">
            <path d="M8,1L8,3L10,3C10,3.549 9.549,4 9,4L9,6C9.549,6 10,6.451 10,7C10,7.549 9.549,8 9,8L8,8L8,10L9,10C10.644,9.998 11.996,8.644 11.996,7C11.996,6.262 11.724,5.55 11.232,5C11.725,4.451 11.999,3.738 12,3L12,1L8,1ZM8,3L6,3L6,6C6,6.549 5.549,7 5,7L5,3L3,3L3,9L5,9C6.646,9 8,7.646 8,6L8,3Z" style="fill:rgb(222,102,240);fill-rule:nonzero;"/>
            <path d="M8,1L8,3L10,3C10,3.549 9.549,4 9,4L9,6C9.549,6 10,6.451 10,7C10,7.549 9.549,8 9,8L8,8L8,10L9,10C10.644,9.998 11.996,8.644 11.996,7C11.996,6.262 11.724,5.55 11.232,5C11.725,4.451 11.999,3.738 12,3L12,1L8,1Z" style="fill:white;fill-opacity:0.4;fill-rule:nonzero;"/>
        </g>
    </g>
</svg>
